<svg xmlns="http://www.w3.org/2000/svg" xmlns:xlink="http://www.w3.org/1999/xlink" width="1310px" height="810px" viewBox="0 0 1310 810" preserveAspectRatio="xMidYMid meet" >
<rect id="svgEditorBackground" x="0" y="0" width="1310" height="810" style="fill: none; stroke: none;"/><defs id="svgEditorDefs">
<polygon id="svgEditorShapeDefs" style="fill:rosybrown;stroke:black;vector-effect:non-scaling-stroke;stroke-width:1px;"/></defs>
<rect x="499.39483642578125" y="320.6277160644531" style="fill:rosybrown;stroke:black;stroke-width:1px;" id="e7_rectangle" width="14.75" height="16.0625" transform="matrix(19.9166 0.00818842 -0.00818842 19.9166 -9463.88 -6146.9)"/>
<path d="M-109.22808187837566,-69.38895541918752v-1.3642384105961156l2.834437086092805,2.7284768211921033l-2.9403973509934644,2.6225165562914867v-1.2582781456954848h-7.019867549668945v-2.7814569536423903Z" style="fill:maroon; stroke:black; vector-effect:non-scaling-stroke;stroke-width:1px;" id="e9_shape" transform="matrix(23.4954 0.00965978 -0.00965978 23.4954 2968.85 1992.3)"/>
<rect x="515.1445922851562" y="327.0027160644531" style="fill:silver;stroke:black;stroke-width:1px;" id="e10_rectangle" width="9.625" height="9.6875" transform="matrix(19.9166 0.00818842 -0.00818842 19.9166 -9463.88 -6146.9)"/>
<line id="e11_line" x1="494.2698974609375" y1="322.7527160644531" x2="497.39483642578125" y2="322.7527160644531" style="stroke:black;fill:none;stroke-width:1px;" transform="matrix(19.9166 0.00818842 -0.00818842 19.9166 -9463.88 -6146.9)"/>
<line id="e12_line" x1="491.70782470703125" y1="332.3157043457031" x2="497.08233642578125" y2="332.3152160644531" style="stroke:black;fill:none;stroke-width:1px;" transform="matrix(19.9166 0.00818842 -0.00818842 19.9166 -9463.88 -6146.9)"/>
<line id="e13_line" x1="490.2698669433594" y1="336.1277160644531" x2="497.26983642578125" y2="336.1277160644531" style="stroke:black;fill:none;stroke-width:1px;" transform="matrix(19.9166 0.00818842 -0.00818842 19.9166 -9463.88 -6146.9)"/></svg>